<svg xmlns="http://www.w3.org/2000/svg" xmlns:xlink="http://www.w3.org/1999/xlink" width="500" zoomAndPan="magnify" viewBox="0 0 375 374.999991" height="500" preserveAspectRatio="xMidYMid meet" version="1.0"><defs><g/><clipPath id="id1"><path d="M 50 58 L 318 58 L 318 325 L 50 325 Z M 50 58 " clip-rule="nonzero"/></clipPath><clipPath id="id2"><path d="M 188.445312 1.929688 L 334.148438 154.199219 L 140.148438 339.824219 L -5.550781 187.554688 Z M 188.445312 1.929688 " clip-rule="nonzero"/></clipPath><clipPath id="id3"><path d="M 188.445312 1.929688 L 374.074219 195.925781 L 180.074219 381.550781 L -5.550781 187.554688 Z M 188.445312 1.929688 " clip-rule="nonzero"/></clipPath><clipPath id="id4"><path d="M 243.648438 211.566406 L 257.148438 211.566406 L 257.148438 225.066406 L 243.648438 225.066406 Z M 243.648438 211.566406 " clip-rule="nonzero"/></clipPath></defs><g clip-path="url(#id1)"><g clip-path="url(#id2)"><g clip-path="url(#id3)"><path fill="#ffffff" d="M 245.46875 307.484375 C 234.742188 313.039062 223.203125 316.882812 211.429688 319.222656 C 201.792969 321.074219 192.011719 322.054688 182.21875 322.007812 C 180.914062 322.039062 179.613281 321.921875 178.3125 321.875 C 177.011719 321.804688 175.707031 321.777344 174.40625 321.675781 L 170.515625 321.320312 L 168.566406 321.140625 L 166.632812 320.878906 L 162.757812 320.359375 C 161.46875 320.15625 160.191406 319.902344 158.90625 319.679688 C 156.328125 319.28125 153.800781 318.652344 151.246094 318.105469 C 150.878906 318.027344 150.496094 317.941406 150.09375 317.855469 C 149.699219 317.746094 149.289062 317.632812 148.859375 317.519531 C 148.003906 317.28125 147.082031 317.027344 146.105469 316.757812 C 144.128906 316.261719 141.984375 315.492188 139.613281 314.710938 C 139.027344 314.507812 138.417969 314.324219 137.808594 314.09375 C 137.203125 313.859375 136.589844 313.617188 135.960938 313.371094 C 134.707031 312.878906 133.40625 312.367188 132.0625 311.839844 C 129.453125 310.625 126.609375 309.476562 123.792969 307.945312 C 112.3125 302.265625 99.96875 293.269531 89.496094 282.414062 C 79.113281 271.472656 70.671875 258.746094 65.5 247.027344 C 64.097656 244.144531 63.074219 241.253906 61.976562 238.589844 C 61.507812 237.226562 61.054688 235.90625 60.617188 234.632812 C 60.402344 233.992188 60.1875 233.367188 59.976562 232.753906 C 59.773438 232.136719 59.617188 231.519531 59.441406 230.921875 C 58.761719 228.523438 58.089844 226.34375 57.679688 224.347656 C 57.453125 223.359375 57.242188 222.425781 57.046875 221.5625 C 56.945312 221.128906 56.851562 220.714844 56.761719 220.3125 C 56.691406 219.910156 56.625 219.519531 56.5625 219.152344 C 54.777344 209.519531 53.859375 199.738281 53.972656 189.945312 C 54.199219 179.515625 55.703125 169.144531 58.097656 158.980469 C 60.953125 147.316406 65.304688 135.960938 71.324219 125.488281 C 77.222656 114.941406 84.847656 105.378906 93.535156 96.921875 C 102.367188 88.617188 112.257812 81.417969 123.054688 75.996094 C 133.78125 70.441406 145.316406 66.597656 157.09375 64.253906 C 166.726562 62.40625 176.507812 61.425781 186.300781 61.472656 C 187.605469 61.441406 188.90625 61.554688 190.210938 61.601562 C 191.511719 61.671875 192.816406 61.703125 194.113281 61.800781 L 198.007812 62.160156 L 199.953125 62.335938 L 201.890625 62.601562 L 205.765625 63.121094 C 207.050781 63.324219 208.328125 63.578125 209.613281 63.796875 C 212.191406 64.199219 214.722656 64.828125 217.273438 65.371094 C 217.640625 65.453125 218.023438 65.539062 218.425781 65.625 C 218.820312 65.734375 219.234375 65.84375 219.660156 65.960938 C 220.515625 66.195312 221.4375 66.449219 222.417969 66.722656 C 224.390625 67.21875 226.539062 67.988281 228.90625 68.765625 C 229.496094 68.96875 230.105469 69.15625 230.710938 69.386719 C 231.316406 69.621094 231.933594 69.863281 232.5625 70.109375 C 233.816406 70.601562 235.117188 71.113281 236.457031 71.640625 C 239.070312 72.851562 241.914062 74.003906 244.726562 75.53125 C 256.210938 81.214844 268.550781 90.210938 279.027344 101.066406 C 289.40625 112.007812 297.847656 124.734375 303.019531 136.453125 C 304.421875 139.335938 305.445312 142.222656 306.542969 144.890625 C 307.011719 146.25 307.464844 147.574219 307.902344 148.847656 C 308.121094 149.484375 308.335938 150.113281 308.542969 150.726562 C 308.746094 151.34375 308.902344 151.960938 309.082031 152.558594 C 309.757812 154.957031 310.429688 157.136719 310.839844 159.128906 C 311.066406 160.121094 311.277344 161.050781 311.476562 161.917969 C 311.574219 162.347656 311.667969 162.765625 311.757812 163.167969 C 311.828125 163.570312 311.894531 163.957031 311.960938 164.328125 C 313.746094 173.960938 314.660156 183.742188 314.546875 193.535156 C 314.324219 203.964844 312.816406 214.335938 310.421875 224.5 C 307.566406 236.164062 303.214844 247.519531 297.195312 257.992188 C 291.300781 268.535156 283.671875 278.101562 274.988281 286.558594 C 266.15625 294.863281 256.265625 302.058594 245.46875 307.484375 Z M 277.136719 288.675781 L 277.144531 288.667969 C 286.011719 280.03125 293.808594 270.265625 299.847656 259.492188 C 306.011719 248.796875 310.460938 237.183594 313.347656 225.261719 L 314.601562 219.652344 C 314.601562 219.652344 314.898438 218.097656 315.335938 215.765625 C 315.84375 213.445312 316.191406 210.296875 316.652344 207.167969 C 316.917969 204.015625 317.296875 200.875 317.335938 198.503906 C 317.441406 196.132812 317.507812 194.554688 317.507812 194.554688 C 317.507812 194.554688 317.519531 194.160156 317.523438 193.46875 C 317.523438 192.777344 317.53125 191.789062 317.535156 190.605469 C 317.609375 188.230469 317.417969 185.078125 317.292969 181.917969 C 317.179688 180.34375 317.015625 178.769531 316.890625 177.292969 C 316.820312 176.554688 316.757812 175.84375 316.695312 175.167969 C 316.601562 174.496094 316.511719 173.859375 316.429688 173.269531 C 316.105469 170.921875 315.886719 169.355469 315.886719 169.355469 C 315.886719 169.355469 315.855469 169 315.753906 168.46875 C 315.660156 167.941406 315.539062 167.234375 315.414062 166.527344 C 315.167969 165.113281 314.917969 163.699219 314.917969 163.699219 C 314.855469 163.320312 314.785156 162.925781 314.714844 162.511719 C 314.625 162.101562 314.53125 161.675781 314.429688 161.230469 C 314.230469 160.34375 314.015625 159.390625 313.785156 158.378906 C 313.371094 156.335938 312.6875 154.105469 311.996094 151.648438 C 311.816406 151.039062 311.652344 150.40625 311.449219 149.773438 C 311.234375 149.144531 311.015625 148.503906 310.796875 147.851562 C 310.347656 146.542969 309.886719 145.191406 309.410156 143.792969 C 308.289062 141.066406 307.242188 138.109375 305.808594 135.160156 C 300.523438 123.15625 291.886719 110.121094 281.257812 98.925781 C 270.546875 87.816406 257.902344 78.613281 246.144531 72.804688 C 243.261719 71.242188 240.351562 70.0625 237.675781 68.828125 C 236.300781 68.289062 234.972656 67.765625 233.683594 67.261719 C 233.042969 67.011719 232.410156 66.765625 231.792969 66.523438 C 231.171875 66.292969 230.546875 66.101562 229.941406 65.894531 C 227.519531 65.097656 225.320312 64.316406 223.300781 63.8125 C 222.296875 63.535156 221.355469 63.28125 220.476562 63.039062 C 220.039062 62.921875 219.617188 62.808594 219.210938 62.699219 C 218.800781 62.609375 218.40625 62.523438 218.03125 62.445312 C 218.03125 62.445312 216.632812 62.132812 215.230469 61.824219 C 214.527344 61.671875 213.828125 61.515625 213.304688 61.398438 C 212.78125 61.273438 212.425781 61.230469 212.425781 61.230469 C 212.425781 61.230469 210.871094 60.941406 208.539062 60.511719 C 207.953125 60.40625 207.324219 60.289062 206.65625 60.164062 C 205.984375 60.074219 205.273438 59.976562 204.539062 59.878906 C 203.070312 59.683594 201.507812 59.449219 199.9375 59.269531 C 196.785156 59.007812 193.644531 58.675781 191.269531 58.644531 C 190.085938 58.597656 189.097656 58.558594 188.40625 58.53125 C 187.71875 58.503906 187.320312 58.5 187.320312 58.5 C 187.320312 58.5 185.742188 58.496094 183.371094 58.496094 C 181 58.429688 177.84375 58.671875 174.683594 58.796875 C 171.539062 59.121094 168.378906 59.328125 166.035156 59.730469 C 163.6875 60.070312 162.121094 60.292969 162.121094 60.292969 L 156.464844 61.300781 C 144.421875 63.65625 132.625 67.59375 121.667969 73.277344 C 110.640625 78.835938 100.542969 86.195312 91.519531 94.675781 L 91.511719 94.679688 L 91.449219 94.742188 L 91.382812 94.804688 L 91.378906 94.8125 C 82.511719 103.449219 74.710938 113.214844 68.671875 123.984375 C 62.511719 134.683594 58.058594 146.292969 55.175781 158.21875 L 53.917969 163.828125 C 53.917969 163.828125 53.625 165.382812 53.183594 167.714844 C 52.679688 170.035156 52.332031 173.183594 51.871094 176.3125 C 51.605469 179.464844 51.222656 182.605469 51.183594 184.976562 C 51.082031 187.34375 51.011719 188.925781 51.011719 188.925781 C 51.011719 188.925781 51 189.320312 51 190.011719 C 50.996094 190.703125 50.988281 191.6875 50.984375 192.875 C 50.910156 195.246094 51.105469 198.402344 51.230469 201.5625 C 51.339844 203.136719 51.503906 204.707031 51.632812 206.183594 C 51.699219 206.921875 51.765625 207.636719 51.828125 208.3125 C 51.921875 208.984375 52.007812 209.621094 52.089844 210.207031 C 52.417969 212.558594 52.636719 214.121094 52.636719 214.121094 C 52.636719 214.121094 52.664062 214.480469 52.765625 215.007812 C 52.859375 215.539062 52.984375 216.246094 53.105469 216.953125 C 53.355469 218.367188 53.601562 219.78125 53.601562 219.78125 C 53.667969 220.15625 53.734375 220.554688 53.804688 220.96875 C 53.894531 221.378906 53.992188 221.804688 54.089844 222.25 C 54.289062 223.136719 54.507812 224.085938 54.734375 225.101562 C 55.152344 227.140625 55.835938 229.375 56.523438 231.832031 C 56.703125 232.441406 56.867188 233.074219 57.074219 233.707031 C 57.285156 234.335938 57.503906 234.976562 57.726562 235.628906 C 58.171875 236.933594 58.636719 238.289062 59.113281 239.683594 C 60.230469 242.414062 61.28125 245.371094 62.710938 248.320312 C 68 260.320312 76.636719 273.359375 87.261719 284.554688 C 97.976562 295.660156 110.621094 304.863281 122.378906 310.675781 C 125.261719 312.234375 128.171875 313.414062 130.847656 314.652344 C 132.21875 315.191406 133.550781 315.714844 134.835938 316.214844 C 135.480469 316.46875 136.109375 316.714844 136.730469 316.953125 C 137.351562 317.1875 137.976562 317.378906 138.578125 317.585938 C 141.003906 318.382812 143.203125 319.164062 145.222656 319.667969 C 146.226562 319.941406 147.167969 320.199219 148.042969 320.4375 C 148.480469 320.558594 148.90625 320.671875 149.308594 320.78125 C 149.722656 320.867188 150.113281 320.953125 150.488281 321.035156 C 150.488281 321.035156 151.890625 321.34375 153.292969 321.65625 C 153.992188 321.808594 154.691406 321.964844 155.21875 322.078125 C 155.738281 322.203125 156.097656 322.25 156.097656 322.25 C 156.097656 322.25 157.652344 322.535156 159.984375 322.964844 C 160.566406 323.074219 161.199219 323.191406 161.863281 323.3125 C 162.539062 323.40625 163.246094 323.503906 163.980469 323.601562 C 165.453125 323.792969 167.015625 324.027344 168.585938 324.210938 C 171.734375 324.472656 174.878906 324.804688 177.25 324.835938 C 178.433594 324.882812 179.421875 324.921875 180.113281 324.949219 C 180.804688 324.976562 181.199219 324.980469 181.199219 324.980469 C 181.199219 324.980469 182.78125 324.980469 185.148438 324.984375 C 187.523438 325.050781 190.675781 324.808594 193.835938 324.679688 C 196.984375 324.359375 200.144531 324.152344 202.484375 323.75 C 204.835938 323.410156 206.398438 323.183594 206.398438 323.183594 L 212.058594 322.179688 C 224.097656 319.824219 235.894531 315.886719 246.851562 310.203125 C 257.878906 304.644531 267.980469 297.28125 277 288.804688 L 277.007812 288.800781 L 277.074219 288.738281 L 277.136719 288.675781 " fill-opacity="1" fill-rule="nonzero"/></g></g></g><g fill="#ffffff" fill-opacity="1"><g transform="translate(149.506137, 323.033987)"><g/></g></g><g fill="#ffffff" fill-opacity="1"><g transform="translate(164.553852, 325.600767)"><g><path d="M 1.0625 -7.765625 C 1.101562 -8.703125 1.316406 -9.625 1.703125 -10.53125 C 2.085938 -11.4375 2.625 -12.234375 3.3125 -12.921875 C 4 -13.609375 4.820312 -14.15625 5.78125 -14.5625 C 6.738281 -14.96875 7.816406 -15.140625 9.015625 -15.078125 C 10.429688 -15.003906 11.640625 -14.628906 12.640625 -13.953125 C 13.648438 -13.273438 14.382812 -12.425781 14.84375 -11.40625 L 12.453125 -9.9375 C 12.273438 -10.382812 12.046875 -10.765625 11.765625 -11.078125 C 11.492188 -11.390625 11.195312 -11.640625 10.875 -11.828125 C 10.550781 -12.015625 10.210938 -12.15625 9.859375 -12.25 C 9.503906 -12.34375 9.15625 -12.398438 8.8125 -12.421875 C 8.050781 -12.460938 7.382812 -12.34375 6.8125 -12.0625 C 6.25 -11.789062 5.769531 -11.421875 5.375 -10.953125 C 4.988281 -10.484375 4.6875 -9.945312 4.46875 -9.34375 C 4.25 -8.738281 4.125 -8.128906 4.09375 -7.515625 C 4.0625 -6.835938 4.132812 -6.179688 4.3125 -5.546875 C 4.5 -4.910156 4.78125 -4.34375 5.15625 -3.84375 C 5.539062 -3.351562 6 -2.945312 6.53125 -2.625 C 7.070312 -2.3125 7.671875 -2.140625 8.328125 -2.109375 C 8.679688 -2.085938 9.046875 -2.113281 9.421875 -2.1875 C 9.804688 -2.257812 10.171875 -2.378906 10.515625 -2.546875 C 10.867188 -2.722656 11.195312 -2.953125 11.5 -3.234375 C 11.800781 -3.515625 12.050781 -3.859375 12.25 -4.265625 L 14.625 -2.734375 C 14.351562 -2.160156 13.976562 -1.664062 13.5 -1.25 C 13.019531 -0.84375 12.488281 -0.5 11.90625 -0.21875 C 11.320312 0.0625 10.703125 0.265625 10.046875 0.390625 C 9.390625 0.515625 8.75 0.5625 8.125 0.53125 C 7.019531 0.46875 6.023438 0.1875 5.140625 -0.3125 C 4.253906 -0.820312 3.5 -1.460938 2.875 -2.234375 C 2.257812 -3.015625 1.789062 -3.890625 1.46875 -4.859375 C 1.144531 -5.828125 1.007812 -6.796875 1.0625 -7.765625 Z M 1.0625 -7.765625 "/></g></g></g><g fill="#ffffff" fill-opacity="1"><g transform="translate(189.463046, 325.976002)"><g><path d="M 8.125 -0.984375 C 7 -0.835938 5.953125 -0.921875 4.984375 -1.234375 C 4.023438 -1.546875 3.171875 -2.019531 2.421875 -2.65625 C 1.671875 -3.289062 1.050781 -4.050781 0.5625 -4.9375 C 0.0703125 -5.820312 -0.234375 -6.753906 -0.359375 -7.734375 C -0.503906 -8.753906 -0.445312 -9.753906 -0.1875 -10.734375 C 0.0625 -11.710938 0.46875 -12.601562 1.03125 -13.40625 C 1.601562 -14.21875 2.316406 -14.894531 3.171875 -15.4375 C 4.035156 -15.988281 5.003906 -16.335938 6.078125 -16.484375 C 7.179688 -16.628906 8.21875 -16.539062 9.1875 -16.21875 C 10.164062 -15.894531 11.023438 -15.410156 11.765625 -14.765625 C 12.503906 -14.117188 13.117188 -13.351562 13.609375 -12.46875 C 14.109375 -11.582031 14.421875 -10.660156 14.546875 -9.703125 C 14.679688 -8.679688 14.625 -7.6875 14.375 -6.71875 C 14.125 -5.75 13.71875 -4.859375 13.15625 -4.046875 C 12.601562 -3.242188 11.894531 -2.566406 11.03125 -2.015625 C 10.164062 -1.472656 9.195312 -1.128906 8.125 -0.984375 Z M 2.65625 -8.140625 C 2.738281 -7.472656 2.914062 -6.84375 3.1875 -6.25 C 3.46875 -5.664062 3.832031 -5.160156 4.28125 -4.734375 C 4.738281 -4.316406 5.257812 -4.003906 5.84375 -3.796875 C 6.4375 -3.585938 7.082031 -3.535156 7.78125 -3.640625 C 8.5 -3.734375 9.113281 -3.957031 9.625 -4.3125 C 10.144531 -4.675781 10.5625 -5.128906 10.875 -5.671875 C 11.1875 -6.210938 11.398438 -6.800781 11.515625 -7.4375 C 11.628906 -8.070312 11.644531 -8.707031 11.5625 -9.34375 C 11.46875 -10 11.269531 -10.617188 10.96875 -11.203125 C 10.675781 -11.796875 10.3125 -12.300781 9.875 -12.71875 C 9.4375 -13.144531 8.921875 -13.460938 8.328125 -13.671875 C 7.734375 -13.878906 7.085938 -13.9375 6.390625 -13.84375 C 5.679688 -13.738281 5.066406 -13.5 4.546875 -13.125 C 4.023438 -12.757812 3.609375 -12.3125 3.296875 -11.78125 C 2.992188 -11.25 2.785156 -10.664062 2.671875 -10.03125 C 2.566406 -9.394531 2.5625 -8.765625 2.65625 -8.140625 Z M 2.65625 -8.140625 "/></g></g></g><g fill="#ffffff" fill-opacity="1"><g transform="translate(215.447586, 321.417886)"><g><path d="M 1.53125 -0.5 L -3.234375 -15.15625 L 2.984375 -17.171875 C 3.648438 -17.390625 4.316406 -17.453125 4.984375 -17.359375 C 5.648438 -17.265625 6.265625 -17.050781 6.828125 -16.71875 C 7.390625 -16.382812 7.878906 -15.960938 8.296875 -15.453125 C 8.722656 -14.953125 9.035156 -14.40625 9.234375 -13.8125 C 9.429688 -13.195312 9.507812 -12.5625 9.46875 -11.90625 C 9.4375 -11.25 9.296875 -10.625 9.046875 -10.03125 C 8.804688 -9.445312 8.445312 -8.925781 7.96875 -8.46875 C 7.5 -8.019531 6.925781 -7.6875 6.25 -7.46875 L 2.78125 -6.34375 L 4.375 -1.421875 Z M 1.96875 -8.84375 L 5.28125 -9.921875 C 5.789062 -10.085938 6.148438 -10.4375 6.359375 -10.96875 C 6.578125 -11.507812 6.570312 -12.144531 6.34375 -12.875 C 6.21875 -13.25 6.050781 -13.566406 5.84375 -13.828125 C 5.632812 -14.085938 5.410156 -14.289062 5.171875 -14.4375 C 4.929688 -14.582031 4.671875 -14.664062 4.390625 -14.6875 C 4.109375 -14.71875 3.84375 -14.691406 3.59375 -14.609375 L 0.421875 -13.578125 Z M 1.96875 -8.84375 "/></g></g></g><g fill="#ffffff" fill-opacity="1"><g transform="translate(237.489089, 313.405274)"><g><path d="M -1.90625 -16.421875 L 0.4375 -17.65625 L 12.8125 -6.78125 L 10.09375 -5.34375 L 7.03125 -8.0625 L 2.265625 -5.53125 L 2.8125 -1.484375 L 0.09375 -0.046875 Z M 5.5625 -9.671875 L 0.859375 -14.03125 L 1.71875 -7.640625 Z M 5.5625 -9.671875 "/></g></g></g><g fill="#ffffff" fill-opacity="1"><g transform="translate(258.774044, 301.165617)"><g><path d="M -4.28125 -6.5625 C -4.863281 -7.300781 -5.304688 -8.140625 -5.609375 -9.078125 C -5.910156 -10.015625 -6.023438 -10.96875 -5.953125 -11.9375 C -5.878906 -12.914062 -5.609375 -13.867188 -5.140625 -14.796875 C -4.679688 -15.722656 -3.976562 -16.554688 -3.03125 -17.296875 C -1.914062 -18.171875 -0.757812 -18.679688 0.4375 -18.828125 C 1.644531 -18.972656 2.753906 -18.8125 3.765625 -18.34375 L 2.921875 -15.671875 C 2.492188 -15.898438 2.070312 -16.039062 1.65625 -16.09375 C 1.238281 -16.144531 0.847656 -16.132812 0.484375 -16.0625 C 0.117188 -16 -0.222656 -15.882812 -0.546875 -15.71875 C -0.878906 -15.550781 -1.179688 -15.363281 -1.453125 -15.15625 C -2.054688 -14.6875 -2.484375 -14.160156 -2.734375 -13.578125 C -2.992188 -13.003906 -3.113281 -12.414062 -3.09375 -11.8125 C -3.082031 -11.207031 -2.960938 -10.601562 -2.734375 -10 C -2.515625 -9.40625 -2.210938 -8.863281 -1.828125 -8.375 C -1.410156 -7.84375 -0.921875 -7.394531 -0.359375 -7.03125 C 0.191406 -6.664062 0.769531 -6.414062 1.375 -6.28125 C 1.976562 -6.15625 2.59375 -6.148438 3.21875 -6.265625 C 3.84375 -6.378906 4.410156 -6.640625 4.921875 -7.046875 C 5.203125 -7.265625 5.460938 -7.519531 5.703125 -7.8125 C 5.941406 -8.113281 6.132812 -8.441406 6.28125 -8.796875 C 6.4375 -9.160156 6.535156 -9.546875 6.578125 -9.953125 C 6.628906 -10.367188 6.59375 -10.796875 6.46875 -11.234375 L 9.265625 -11.640625 C 9.429688 -11.023438 9.46875 -10.40625 9.375 -9.78125 C 9.289062 -9.15625 9.117188 -8.546875 8.859375 -7.953125 C 8.597656 -7.359375 8.257812 -6.800781 7.84375 -6.28125 C 7.4375 -5.757812 6.984375 -5.304688 6.484375 -4.921875 C 5.617188 -4.242188 4.679688 -3.804688 3.671875 -3.609375 C 2.671875 -3.410156 1.679688 -3.398438 0.703125 -3.578125 C -0.265625 -3.753906 -1.1875 -4.101562 -2.0625 -4.625 C -2.9375 -5.144531 -3.675781 -5.789062 -4.28125 -6.5625 Z M -4.28125 -6.5625 "/></g></g></g><g fill="#ffffff" fill-opacity="1"><g transform="translate(277.785344, 285.15429)"><g><path d="M -7.5 -14.734375 L -5.71875 -16.703125 L 9.671875 -10.8125 L 7.609375 -8.515625 L 3.796875 -10 L 0.203125 -5.984375 L 2.125 -2.375 L 0.078125 -0.078125 Z M 1.859375 -11 L -4.078125 -13.453125 L -1.046875 -7.765625 Z M 1.859375 -11 "/></g></g></g><g fill="#ffffff" fill-opacity="1"><g transform="translate(293.486186, 266.282524)"><g><path d="M 3.984375 -14 C 4.535156 -13.664062 4.953125 -13.257812 5.234375 -12.78125 C 5.515625 -12.300781 5.675781 -11.78125 5.71875 -11.21875 C 5.769531 -10.65625 5.707031 -10.070312 5.53125 -9.46875 C 5.363281 -8.863281 5.101562 -8.273438 4.75 -7.703125 L 0.84375 -1.375 L -12.265625 -9.46875 L -7.9375 -16.484375 C -7.65625 -16.929688 -7.300781 -17.273438 -6.875 -17.515625 C -6.457031 -17.765625 -6.007812 -17.921875 -5.53125 -17.984375 C -5.050781 -18.054688 -4.570312 -18.039062 -4.09375 -17.9375 C -3.613281 -17.84375 -3.171875 -17.671875 -2.765625 -17.421875 C -2.117188 -17.023438 -1.613281 -16.488281 -1.25 -15.8125 C -0.882812 -15.132812 -0.757812 -14.414062 -0.875 -13.65625 C -0.1875 -14.257812 0.578125 -14.597656 1.421875 -14.671875 C 2.265625 -14.753906 3.117188 -14.53125 3.984375 -14 Z M 1.921875 -11.734375 C 1.679688 -11.878906 1.425781 -11.976562 1.15625 -12.03125 C 0.894531 -12.09375 0.644531 -12.101562 0.40625 -12.0625 C 0.164062 -12.019531 -0.0546875 -11.9375 -0.265625 -11.8125 C -0.472656 -11.695312 -0.644531 -11.523438 -0.78125 -11.296875 L -3.203125 -7.375 L 0.234375 -5.25 L 2.578125 -9.046875 C 2.722656 -9.285156 2.816406 -9.53125 2.859375 -9.78125 C 2.898438 -10.03125 2.890625 -10.273438 2.828125 -10.515625 C 2.765625 -10.765625 2.65625 -10.992188 2.5 -11.203125 C 2.34375 -11.421875 2.148438 -11.597656 1.921875 -11.734375 Z M -8.53125 -10.640625 L -5.234375 -8.609375 L -3.125 -12.015625 C -2.863281 -12.453125 -2.785156 -12.910156 -2.890625 -13.390625 C -2.992188 -13.878906 -3.304688 -14.285156 -3.828125 -14.609375 C -4.328125 -14.921875 -4.8125 -15.023438 -5.28125 -14.921875 C -5.75 -14.816406 -6.109375 -14.5625 -6.359375 -14.15625 Z M -8.53125 -10.640625 "/></g></g></g><g fill="#ffffff" fill-opacity="1"><g transform="translate(305.696896, 244.786687)"><g><path d="M -12.125 -11.21875 L -11.15625 -13.6875 L 5.3125 -13.484375 L 4.1875 -10.625 L 0.078125 -10.6875 L -1.890625 -5.671875 L 1.171875 -2.96875 L 0.046875 -0.109375 Z M -2.0625 -10.96875 L -8.46875 -11.203125 L -3.65625 -6.921875 Z M -2.0625 -10.96875 "/></g></g></g><g fill="#ffffff" fill-opacity="1"><g transform="translate(313.947866, 221.60588)"><g><path d="M -8.8125 -6.40625 L 0.875 -4.515625 L 0.3125 -1.578125 L -14.8125 -4.515625 L -14.375 -6.78125 L -2.921875 -12.75 L -12.828125 -14.671875 L -12.25 -17.609375 L 2.859375 -14.671875 L 2.390625 -12.28125 Z M -8.8125 -6.40625 "/></g></g></g><g fill="#ffffff" fill-opacity="1"><g transform="translate(318.017043, 195.349423)"><g><path d="M -15.359375 -6.109375 L -15.34375 -8.765625 L 0.125 -14.5 L 0.09375 -11.421875 L -3.765625 -10.015625 L -3.8125 -4.625 L 0.03125 -3.1875 L 0 -0.109375 Z M -5.875 -9.484375 L -11.9375 -7.40625 L -5.90625 -5.140625 Z M -5.875 -9.484375 "/></g></g></g><g fill="#ffffff" fill-opacity="1"><g transform="translate(317.205894, 171.087059)"><g/></g></g><g fill="#ffffff" fill-opacity="1"><g transform="translate(95.607499, 223.832618)"><g><path d="M 75.945312 -15.992188 C 74.234375 -15.992188 72.183594 -15.308594 71.070312 -13.941406 C 65.941406 -7.183594 58.414062 -3.507812 50.03125 -3.507812 C 41.308594 -3.507812 33.011719 -6.925781 27.195312 -13.597656 C 18.21875 -23.863281 15.992188 -38.828125 16.933594 -51.914062 C 18.132812 -70.730469 29.078125 -88.433594 48.152344 -88.433594 C 55.25 -88.433594 62.347656 -85.269531 67.992188 -81.164062 C 68.335938 -80.90625 68.933594 -80.820312 69.53125 -80.820312 C 72.269531 -80.820312 76.460938 -83.042969 73.980469 -84.839844 C 66.878906 -90.058594 58.328125 -92.792969 49.691406 -92.792969 C 29.25 -92.792969 14.027344 -77.914062 10.347656 -57.984375 C 7.441406 -42.507812 9.578125 -25.144531 18.21875 -13.257812 C 24.714844 -4.277344 35.152344 0.941406 46.183594 1.027344 C 58.242188 1.113281 70.558594 -3.933594 78 -13.597656 C 79.109375 -15.050781 77.058594 -15.992188 75.945312 -15.992188 Z M 75.945312 -15.992188 "/></g></g></g><g fill="#ffffff" fill-opacity="1"><g transform="translate(170.024995, 223.832618)"><g><path d="M 76.203125 -27.195312 C 73.636719 -40.539062 59.523438 -46.011719 48.234375 -47.722656 C 52.339844 -49.347656 56.273438 -51.570312 59.609375 -54.222656 C 69.191406 -61.320312 73.378906 -74.234375 66.710938 -84.414062 C 62.773438 -90.3125 55.761719 -92.792969 48.835938 -92.792969 C 39.085938 -92.792969 22.066406 -88.089844 15.308594 -81.933594 C 14.195312 -80.992188 14.539062 -80.136719 14.796875 -78.855469 C 17.53125 -60.722656 18.730469 -42.078125 15.652344 -24.289062 C 15.480469 -23.261719 16.507812 -22.835938 17.875 -22.835938 C 19.925781 -22.835938 22.835938 -23.863281 23.007812 -25.316406 C 26.339844 -43.960938 24.546875 -64.570312 22.066406 -81.761719 C 28.992188 -85.609375 37.546875 -88.859375 45.585938 -88.859375 C 50.03125 -88.859375 54.308594 -87.664062 57.730469 -84.070312 C 71.242188 -69.703125 52.683594 -49.859375 38.570312 -48.234375 C 37.03125 -48.066406 34.980469 -47.636719 34.382812 -46.183594 C 33.867188 -44.902344 35.40625 -44.472656 36.433594 -44.472656 C 47.808594 -44.472656 62.089844 -40.964844 67.136719 -30.105469 C 74.148438 -14.96875 63.03125 -0.34375 49.089844 0.855469 C 48.492188 0.855469 47.894531 0.855469 47.296875 0.855469 C 34.722656 0.855469 22.066406 -4.960938 14.027344 -14.195312 C 13.683594 -14.625 13 -14.796875 12.144531 -14.796875 C 9.578125 -14.796875 5.730469 -12.914062 7.011719 -11.375 C 15.90625 -1.453125 30.277344 4.789062 44.214844 4.789062 C 51.914062 4.789062 59.523438 2.90625 65.941406 -1.367188 C 74.40625 -7.183594 78.085938 -17.277344 76.203125 -27.195312 Z M 76.203125 -27.195312 "/></g></g></g><g clip-path="url(#id4)"><path fill="#ffffff" d="M 250.398438 211.566406 C 246.671875 211.566406 243.648438 214.589844 243.648438 218.316406 C 243.648438 222.046875 246.671875 225.066406 250.398438 225.066406 C 254.128906 225.066406 257.148438 222.046875 257.148438 218.316406 C 257.148438 214.589844 254.128906 211.566406 250.398438 211.566406 " fill-opacity="1" fill-rule="nonzero"/></g></svg>